<?xml version="1.0" encoding="utf-8"?>
<!-- Generator: Adobe Illustrator 17.0.0, SVG Export Plug-In . SVG Version: 6.00 Build 0)  -->
<!DOCTYPE svg PUBLIC "-//W3C//DTD SVG 1.1//EN" "http://www.w3.org/Graphics/SVG/1.1/DTD/svg11.dtd">
<svg version="1.1" id="Layer_1" xmlns="http://www.w3.org/2000/svg" xmlns:xlink="http://www.w3.org/1999/xlink" x="0px" y="0px"
	 width="116px" height="65.868px" viewBox="0 20.81 116 65.868" enable-background="new 0 20.81 116 65.868" xml:space="preserve">
<g>
	<g>
		<g>
			
				<linearGradient id="SVGID_1_" gradientUnits="userSpaceOnUse" x1="133.7775" y1="-207.1861" x2="182.5403" y2="-145.8582" gradientTransform="matrix(1 0 0 -1 -113.35 -120.09)">
				<stop  offset="0" style="stop-color:#FFFFFF"/>
				<stop  offset="1" style="stop-color:#9B2A8F"/>
			</linearGradient>
			<path fill="url(#SVGID_1_)" d="M32.577,48.892c-2.342,2.666-3.991,5.623-3.991,9.092c0,4.05,1.436,7.477,4.307,10.28
				s6.392,4.204,10.562,4.204c4.991,0,9.345-1.718,13.062-5.153c3.717-3.435,5.576-7.477,5.576-12.126
				c0-2.478-0.492-4.832-1.474-7.063c-0.983-2.23-2.774-5.038-5.371-8.422c-1.435-1.897-2.422-3.38-2.961-4.448
				c-0.539-1.068-0.808-2.089-0.808-3.064c0-0.359,0.034-0.722,0.103-1.089c0.045-0.243,0.111-0.458,0.186-0.66
				c0.109-0.431,0.306-0.821,0.582-1.156l-0.075,0.008c1.145-1.948,2.717-2.923,4.717-2.923c1.402,0,2.671,0.526,3.808,1.577
				c1.135,1.051,1.704,2.201,1.704,3.448c0,0.633-0.171,1.282-0.513,1.948l-0.179,0.59c0.034,0.034,0.098,0.103,0.192,0.205
				s0.176,0.154,0.244,0.154c0.444,0,0.948-0.419,1.512-1.256c0.871-1.436,1.308-2.888,1.308-4.358c0-2.136-0.829-3.982-2.488-5.537
				c-1.657-1.555-3.64-2.333-5.948-2.333c-1.965,0-3.751,0.628-5.358,1.884c-1.607,1.256-2.409,2.619-2.409,4.089
				c0,0.735,0.384,1.102,1.153,1.102c0.308,0,0.615-0.137,0.923-0.41c-0.342-0.495-0.513-0.974-0.513-1.435
				c0-1.179,0.611-2.209,1.833-3.089c1.222-0.88,2.662-1.32,4.319-1.32c1.881,0,3.538,0.65,4.973,1.948
				c1.436,1.299,2.154,2.786,2.154,4.461l-0.051,1.154c-1.402-2.615-3.358-3.922-5.871-3.922c-3.009,0-5.375,1.521-7.102,4.563
				c-0.039,0.018-0.074,0.037-0.112,0.055c-0.086,0.36-0.22,0.705-0.376,1.042c0.027-0.015,0.05-0.032,0.077-0.047
				c-0.171,0.598-0.278,1.043-0.32,1.333c-0.043,0.291-0.064,0.735-0.064,1.333c0,1.06,0.265,2.209,0.794,3.448
				c0.53,1.239,1.333,2.645,2.41,4.217l1,1.436l1.051,1.41c0.803,1.077,1.418,1.897,1.845,2.461
				c0.205,0.428,0.419,0.829,0.641,1.205c0.975,1.641,1.671,3.145,2.09,4.512s0.629,2.803,0.629,4.307
				c0,4.068-1.479,7.439-4.436,10.113c-2.956,2.675-6.691,4.012-11.202,4.012c-3.999,0-7.396-1.346-10.191-4.038
				c-2.794-2.692-4.192-5.943-4.192-9.754C30.33,53.891,30.971,50.883,32.577,48.892"/>
			
				<linearGradient id="SVGID_2_" gradientUnits="userSpaceOnUse" x1="149.7989" y1="-219.9254" x2="198.5618" y2="-158.5975" gradientTransform="matrix(1 0 0 -1 -113.35 -120.09)">
				<stop  offset="0" style="stop-color:#FFFFFF"/>
				<stop  offset="1" style="stop-color:#9B2A8F"/>
			</linearGradient>
			<path fill="url(#SVGID_2_)" d="M67.297,63.009l-1.051,2.641c-0.666,1.675-1.167,2.82-1.5,3.435s-0.803,1.341-1.41,2.179
				c-0.606,0.837-1.333,1.525-2.178,2.063c-0.846,0.538-1.637,0.808-2.371,0.808c-0.274,0-0.41-0.12-0.41-0.359
				c0-0.205,0.119-0.325,0.359-0.359c1.094-0.325,2.009-0.996,2.743-2.012c0.734-1.017,1.504-2.696,2.307-5.037l5.255-15.382
				l0.462-1.769c0-0.085-0.034-0.154-0.103-0.205c-0.068-0.051-0.12-0.094-0.154-0.128c-0.171,0-0.338,0.034-0.5,0.103
				c-0.162,0.068-0.499,0.282-1.012,0.641l-0.385,0.103c-0.068,0-0.146-0.051-0.23-0.154c-0.086-0.103-0.146-0.171-0.18-0.205
				c0-0.154,0.103-0.333,0.308-0.538c0.205-0.205,0.538-0.453,0.999-0.743c1.675-1.145,2.991-1.718,3.948-1.718
				c0.41,0,0.615,0.171,0.615,0.513c0,0.222-0.205,1.086-0.615,2.589c1.47-1.162,2.718-1.995,3.743-2.499
				c1.025-0.504,2.016-0.756,2.974-0.756c1.008,0,1.845,0.368,2.512,1.102c0.667,0.735,1,1.658,1,2.769
				c0,1.538-0.483,3.29-1.449,5.255c-0.966,1.966-2.166,3.683-3.601,5.153c-2.377,2.478-4.803,3.717-7.281,3.717
				C69.066,64.214,68.135,63.812,67.297,63.009z M77.013,48.037c-1.111,0-2.282,0.581-3.512,1.743s-2.281,2.649-3.154,4.461
				c-1.094,2.342-1.641,4.299-1.641,5.871c0,1.726,0.829,2.589,2.487,2.589c1.914,0,3.79-1.252,5.627-3.756
				c1.838-2.504,2.756-5.055,2.756-7.652C79.577,49.123,78.722,48.037,77.013,48.037z"/>
			
				<linearGradient id="SVGID_3_" gradientUnits="userSpaceOnUse" x1="163.1471" y1="-230.5371" x2="211.9091" y2="-169.2102" gradientTransform="matrix(1 0 0 -1 -113.35 -120.09)">
				<stop  offset="0" style="stop-color:#FFFFFF"/>
				<stop  offset="1" style="stop-color:#9B2A8F"/>
			</linearGradient>
			<path fill="url(#SVGID_3_)" d="M93.779,62.214l0.256-1.102c-2.615,1.966-5.041,2.948-7.281,2.948c-1.23,0-2.213-0.35-2.948-1.051
				c-0.734-0.701-1.102-1.666-1.102-2.897c0-1.384,0.367-2.666,1.102-3.845s2.016-2.47,3.846-3.871c0-1.948,0.645-3.52,1.935-4.717
				c1.29-1.196,2.97-1.795,5.038-1.795c1.675,0,3.013,0.415,4.012,1.244s1.5,1.91,1.5,3.243c0,0.513-0.06,1.034-0.179,1.564
				c-0.12,0.53-0.342,1.214-0.667,2.051l-2.41,6.306l-0.205,0.513l-0.154,0.641c0,0.205,0.12,0.308,0.359,0.308l0.359-0.103
				l0.847-0.256c0.308,0,0.461,0.12,0.461,0.359c0,0.393-0.453,0.829-1.359,1.307c-1.299,0.701-2.256,1.051-2.871,1.051
				c-0.53,0-0.795-0.265-0.795-0.795C93.522,63.111,93.609,62.744,93.779,62.214z M93.933,50.78c-1.914,0-3.798,0.945-5.652,2.833
				c-1.854,1.888-2.782,3.816-2.782,5.781c0,0.838,0.294,1.538,0.884,2.102c0.59,0.564,1.354,0.846,2.294,0.846
				c1.897,0,3.73-0.94,5.499-2.82s2.653-3.922,2.653-6.127c0-0.803-0.252-1.44-0.756-1.91C95.569,51.016,94.855,50.78,93.933,50.78z
				 M90.216,50.319v0.513c1.436-0.735,2.82-1.102,4.153-1.102c1.111,0,2.247,0.402,3.41,1.205l0.154-1.102
				c0-0.837-0.333-1.538-1-2.102c-0.666-0.564-1.487-0.846-2.461-0.846c-1.06,0-2.033,0.359-2.922,1.077
				C90.66,48.678,90.216,49.465,90.216,50.319z"/>
			<g>
				<g>
					<g>
						<path fill="#009292" d="M44.978,69.777c-7.553,0-13.697-6.144-13.697-13.696c0-6.955,10.948-21.697,12.196-23.355l1.501-1.994
							l1.501,1.994c1.249,1.659,12.196,16.4,12.196,23.355C58.675,63.633,52.531,69.777,44.978,69.777z"/>
					</g>
					<g>
						<path fill="#FFFFFF" d="M41.351,65.88c-3.64,0-6.602-2.961-6.602-6.601c0-0.83,0.673-1.503,1.503-1.503
							c0.83,0,1.503,0.673,1.503,1.503c0,1.982,1.614,3.595,3.596,3.595c0.83,0,1.504,0.673,1.504,1.503
							C42.855,65.207,42.182,65.88,41.351,65.88z"/>
					</g>
				</g>
				<g>
					<path fill="#FFFFFF" d="M44.978,66.122c1.736,0,1.736-2.693,0-2.693C43.242,63.43,43.242,66.122,44.978,66.122L44.978,66.122z"
						/>
				</g>
			</g>
		</g>
		
			<linearGradient id="SVGID_4_" gradientUnits="userSpaceOnUse" x1="115.964" y1="-181.0919" x2="229.3506" y2="-181.0919" gradientTransform="matrix(1 0 0 -1 -113.35 -120.09)">
			<stop  offset="0" style="stop-color:#FFFFFF"/>
			<stop  offset="1" style="stop-color:#9B2A8F"/>
		</linearGradient>
		<path fill="url(#SVGID_4_)" d="M87.653,52.396c0,0-0.086-16.182,14.939-17.049c15.026-0.867,18.421,24.829,5.057,36.841
			C95.031,83.53,75.344,91.515,50.941,83.313c-25.789-8.669-48.327,2.89-48.327,2.89s21.628-12.916,50.639-3.54
			c33.302,10.763,53.574-9.721,58.345-17.795c4.382-7.416,4.15-28.847-10.017-28.51C101.581,36.358,90.552,35.326,87.653,52.396z"/>
	</g>
</g>
</svg>
